<svg xmlns="http://www.w3.org/2000/svg" version="1.1" xmlns:xlink="http://www.w3.org/1999/xlink" xmlns:svgjs="http://svgjs.dev/svgjs" width="1000" height="1125" viewBox="0 0 1000 1125">
  <g transform="matrix(1,0,0,1,0,0)">
    <svg viewBox="0 0 320 360" data-background-color="#d9bca9" preserveAspectRatio="xMidYMid meet" height="1125" width="1000" xmlns="http://www.w3.org/2000/svg" xmlns:xlink="http://www.w3.org/1999/xlink">
      <g id="tight-bounds" transform="matrix(1,0,0,1,0,0)">
        <svg viewBox="0 0 320 360" height="360" width="320">
          <g>
            <svg></svg>
          </g>
          <g>
            <svg viewBox="0 0 320 360" height="360" width="320">
              <g>
                <path xmlns="http://www.w3.org/2000/svg" d="M219.58 41.008c0.707 0 6.365 2.829 9.547 3.89-1.061 0.354-3.536-0.707-6.365-1.768 0.707 0 2.122 0.354 3.536 1.06-0.707-0.707-6.011-2.475-6.718-3.182M166.895 30.047c1.061-0.354 13.436 1.414 19.094 1.768 0.354-0.354-0.707-0.354-2.122-0.707 1.768-0.354 5.304 0.707 7.779 1.06-7.425 0.354-15.558-1.768-22.629-1.06-2.475 0-0.707-0.707-2.122-1.061M156.641 30.047c6.365 0 11.315 0 2.121 0.707-1.061-0.354-2.475-0.354-2.121-0.707M256.707 59.395c0.707 0 3.536 3.182 4.95 4.243-0.354 0.354-3.182-2.475-4.596-3.536 0.354 0.354 0 0-0.354-0.707M249.635 54.798c-2.829-2.475-3.889-2.475-4.243-3.889 2.475 1.414 4.243 2.829 4.243 3.889M204.022 32.522c0.354-0.354 1.061 0.354 2.829 0.707-2.122-0.354-1.768 0-1.061 0.707-2.475-0.354-3.182-0.707-2.475-1.414 1.414 0.707 1.768 0.354 0.707 0M103.602 36.765c0-0.354 1.414-1.061 2.475-1.414-1.061 0.707-0.707 1.061 1.061 0.353 0 0.354-2.122 1.061-3.536 1.768 0.707-0.354 1.414-1.414 0-0.707M211.094 28.986c-1.061 0.354-4.95-1.768-8.84-2.475-2.122-0.707 8.486 1.768 8.84 2.475M2.475 203.66c2.122 8.84 0.707 8.486 0 0M2.829 150.621c0.354-1.414 0.707-5.304 1.06-4.95-1.061 8.486-2.829 12.376-3.182 18.74 1.061-5.657-0.354 3.182-0.707 5.304 0.354 2.829 0.354-1.768 1.061-1.06 0.707 1.061-1.414 15.912-0.707 7.779-0.707 7.425 0 15.558 1.414 17.679-1.768 11.315 7.072 36.773 8.84 42.077 0.354 0.354 0-1.768 0.707-0.353 0.707 4.597 3.889 7.779 4.95 12.729 1.061 1.414 5.304 9.193 6.011 10.962 1.414 2.829 2.122 2.475 3.536 5.303 4.243 8.133 10.961 15.912 17.326 23.337 20.508 24.044 51.978 43.845 86.984 50.918 35.006 7.425 71.779 2.122 100.419-11.669 1.768-1.061 1.414-1.414 3.536-2.122 9.901-3.182 21.923-13.436 28.641-17.326 3.182-3.536 11.669-9.547 12.73-13.082 6.011-4.95 12.022-13.083 15.204-18.387 1.768-2.829 3.182-2.829 3.889-4.597-0.354 0 5.657-7.425 7.426-11.668-0.707 0-1.768 2.122-1.768 0 12.729-24.398 19.801-57.282 15.911-79.912 0.707 27.934-6.365 59.05-19.801 78.851-6.011 12.729-18.387 26.519-29.701 36.42-1.768 1.768-3.536 3.889-5.658 5.304-6.718 5.657-14.144 10.254-21.922 14.497-18.387 10.254-38.895 19.094-62.94 19.447 41.37-3.536 78.497-24.398 99.006-49.856-15.558 15.204-22.276 21.215-39.602 30.055-1.414 2.475-13.083 7.425-20.862 9.547 4.597-2.122 14.144-5.657 17.326-8.486-25.812 12.376-54.453 19.448-81.326 15.558 10.254 0 24.751 0.354 38.541-2.121 2.122-0.707 3.182-1.414 5.658-1.768 26.873-6.011 52.685-19.094 71.072-37.481-10.608 9.547-26.519 20.862-36.774 24.398 9.547-5.304 26.873-15.558 32.53-23.337-11.315 11.315-32.53 22.63-45.966 27.58-2.122 0.354 1.414-1.414-2.122 0-4.243 1.061-2.475 1.061-3.536 1.768-16.265 4.597-35.006 8.486-50.563 7.072-2.829-0.354-3.889-1.061-6.365-1.061-2.829-0.354-5.304-0.354-8.486-0.354-12.376-1.414-25.812-6.365-35.713-10.607-5.304-2.475-10.608-4.243-15.912-7.426-4.243-2.475-7.779-5.304-11.314-8.132-13.436-9.901-24.751-19.801-35.36-33.945-19.094-26.519-28.994-59.757-27.58-92.641 1.414-32.884 14.497-65.061 35.359-88.752-1.061 1.061 1.414-2.475 3.536-4.596 0 0.707-0.354 1.768 2.122-0.707 2.122-2.475-0.707-0.707 0.353-2.122 21.923-24.044 60.111-43.492 99.36-44.199 1.414-1.061 3.889-2.475 6.718-1.768 0 0.354-1.768 0.354-1.768 0.354 3.889-0.354 7.425-0.354 9.193 0.353 0.354-0.354-1.414-0.707 0-0.707 2.475 0.707 3.182 0 4.597 0.707-1.061 0-2.122 0-2.829 0.354 8.84 0 14.497 2.122 23.337 2.829-4.597-1.061-5.657-1.061-9.193-2.122 3.889 0.707 5.657 1.414 7.425 1.061-0.707 0-0.354-1.061 0.354-0.707 7.072 1.768 7.779 2.475 15.204 4.95 0.707-0.707-3.182-1.061-4.243-2.122 7.072 2.475 13.436 4.243 17.68 7.072-1.414-1.061-5.657-2.475-8.84-3.889-0.354 0.354 1.061 0.707 1.414 1.414-3.536-1.768-8.486-3.536-13.436-4.243 4.243 1.061 7.072 2.475 8.84 3.182-3.889-0.707-8.84-3.182-14.498-4.243 9.193 2.829 26.519 9.193 37.127 14.851-3.889-2.475-8.486-4.243-10.961-5.657 2.122 0.354 4.597 1.768 4.597 1.06 2.475 1.061 5.657 3.536 7.425 3.89-3.182-2.122-9.547-5.304-11.668-6.365 26.519 12.022 50.21 32.177 65.414 57.989 1.414 2.475 3.536 8.133 5.304 8.84-0.354-1.768-1.768-2.829-3.182-5.657 0.707 0 0.707-1.061 0-2.122-1.414-1.768 0 1.414-1.415-0.354-6.365-11.669-14.144-21.923-26.165-33.237 6.718 6.365 1.768 1.768 0.353-0.354 9.193 8.133 19.801 21.923 24.398 28.995-0.707-1.061-1.061-1.768-0.707-1.768 8.486 14.497 13.79 27.58 19.094 46.32 0.354 0.354 0-1.414 0.707-0.353 3.536 14.851 4.597 27.227 4.243 38.541 2.829-19.094-3.536-48.796-14.851-72.133-1.414-2.829-1.414-0.707-2.829-3.889 0-1.061-1.061-3.182-1.768-4.597-14.144-23.337-31.47-39.956-51.978-53.038 1.414 0.707 4.243 2.829 4.244 2.475-38.188-25.105-82.387-28.641-118.807-20.862-2.475 1.061-3.536 2.122-6.365 3.536 5.304-1.768 8.486-2.122 13.437-3.183 1.061-1.061-4.597 0.354-2.122-0.707 0.354 0.354 4.95-0.707 6.011-0.353 0 0.354-1.414 0.707-1.768 1.06 11.669-2.475 23.691-2.829 33.945-2.121-6.011 0.354-16.972-0.707-20.508 1.061 3.536-0.354 8.486-0.707 11.668-0.354-4.243 0-12.022 0.354-15.558 0.707-0.354-0.354 5.657-1.061 1.768-1.06-1.768 0.354-4.597 0.354-5.657 1.414-30.409 2.829-60.111 18.74-80.973 37.481-4.243 3.536-9.193 7.425-12.375 11.314-7.779 8.84-12.729 17.68-18.387 25.459 3.536-7.425 11.315-18.74 20.508-28.287 9.193-9.547 19.094-17.68 24.398-21.923 0 1.414 8.486-5.304 11.669-7.425-2.122 1.768 1.414-0.707 2.121-0.354 11.315-6.718 20.508-9.193 30.763-13.083-2.475 0.707-4.597 1.414-4.951 1.061 2.475-0.707 3.889-1.414 3.536-1.768-9.901 2.829-25.459 9.547-37.834 16.972 22.276-15.204 50.564-24.398 78.497-24.751 27.934-0.707 55.16 6.365 76.729 17.68 14.497 6.365 28.287 18.033 39.249 29.348 3.182 2.829 0.707-0.707 5.304 4.243-1.414-0.707-2.475-1.414-0.707 0.707 2.829 3.182-0.707-2.475 3.889 3.182-0.354 0-1.768-1.768-1.768-1.061 12.376 10.961 21.923 30.762 27.58 43.846-1.414-5.304-4.95-12.729-7.779-18.033 8.486 15.558 11.315 24.751 14.851 38.541 1.414 1.061-0.707-4.95 0.707-2.121 0.354 2.122 0.707 8.84 2.122 9.9-1.061-6.718-2.829-14.851-4.243-16.265 1.061 0.707-1.768-8.133-3.536-10.254-0.707-5.657-5.657-15.558-9.901-22.984-15.204-29.702-42.431-54.099-72.839-67.536 0-0.707-1.768-1.414-2.476-2.121-30.055-12.729-66.122-16.265-100.773-8.133-35.006 8.486-67.889 28.641-91.227 57.636 1.061-3.536 9.901-10.254 10.255-13.083-10.254 10.961-21.215 25.459-28.641 41.016-7.779 15.558-12.022 31.47-13.79 43.138" fill="#323232" fill-rule="nonzero" stroke="none" stroke-width="1" stroke-linecap="butt" stroke-linejoin="miter" stroke-miterlimit="10" stroke-dasharray="" stroke-dashoffset="0" font-family="none" font-weight="none" font-size="none" text-anchor="none" style="mix-blend-mode: normal" data-fill-palette-color="tertiary">
                </path>
              </g>
              <g transform="matrix(1,0,0,1,48.5561392262409,90)">
                <svg viewBox="0 0 222.8877215475182 180" height="180" width="222.8877215475182">
                  <g>
                    <svg viewBox="0 0 222.8877215475182 180" height="180" width="222.8877215475182">
                      <g>
                        <svg viewBox="0 0 224 180.89825549858313" height="180" width="222.8877215475182">
                          <g transform="matrix(1,0,0,1,0,123.64305568961593)">
                            <svg viewBox="0 0 224 57.25519980896719" height="57.25519980896719" width="224">
                              <g id="textblocktransform">
                                <svg viewBox="0 0 224 57.25519980896719" height="57.25519980896719" width="224" id="textblock">
                                  <g>
                                    <svg viewBox="0 0 224 33.94250764525994" height="33.94250764525994" width="224">
                                      <g transform="matrix(1,0,0,1,0,0)">
                                        <svg width="224" viewBox="3.25 -37.5 326.9700012207031 49.54999923706055" height="33.94250764525994" data-palette-color="#323232">
                                          <path d="M15.2 0L3.25 0 3.25-1 7.2-2.5 7.2-30.5 3.25-32 3.25-33 15.2-33 15.2-32 11.1-30.5 11.1-18.2 28.85-18.2 28.85-30.5 24.75-32 24.75-33 36.7-33 36.7-32 32.75-30.5 32.75-2.5 36.7-1 36.7 0 24.75 0 24.75-1 28.85-2.5 28.85-15.85 11.1-15.85 11.1-2.5 15.2-1 15.2 0ZM53.05 0.5L53.05 0.5Q49.7 0.5 47.32-0.9 44.95-2.3 43.7-4.78 42.45-7.25 42.45-10.5L42.45-10.5Q42.45-14.1 43.9-16.93 45.35-19.75 47.75-21.38 50.15-23 52.95-23L52.95-23Q56.9-23 59.15-20.3 61.4-17.6 61.55-12.7L61.55-12.7 61.35-12.5 45.8-12.5Q45.8-12.3 45.8-12.1L45.8-12.1Q45.8-9.5 46.7-7.33 47.6-5.15 49.55-3.88 51.5-2.6 54.6-2.6L54.6-2.6Q58.3-2.6 61.4-4.8L61.4-4.8 61.55-4.8 61.55-4.25Q60.45-2.25 58.22-0.88 56 0.5 53.05 0.5ZM52.2-21.25L52.2-21.25Q49.8-21.25 48.1-19.43 46.4-17.6 45.95-14.3L45.95-14.3 58.15-14.3Q57.15-21.25 52.2-21.25ZM77.1 0L66.9 0 66.9-0.8 70.05-2.05 70.05-18.65 66.8-20.35 66.8-20.9 72.65-23 73.05-23 73.4-18.65 73.55-18.65Q75.05-20.6 76.07-21.53 77.1-22.45 77.95-22.73 78.8-23 79.65-23L79.65-23Q80.05-23 80.55-22.88 81.05-22.75 81.35-22.6L81.35-22.6Q81.9-22.4 82.25-22.1 82.6-21.8 82.6-21.45L82.6-21.45Q82.6-21.3 82.57-21.1 82.55-20.9 82.45-20.7L82.45-20.7 81.65-18.7 81.4-18.7 79.9-19.35Q79-19.7 77.9-19.7L77.9-19.7Q76.65-19.7 75.55-19.05 74.45-18.4 73.45-16.9L73.45-16.9 73.45-2.05 77.1-0.8 77.1 0ZM95.59 0L85.69 0 85.69-0.8 88.84-2.05 88.84-18.65 85.54-20.35 85.54-20.9 91.44-23 91.79-23 92.14-19.35 92.39-19.35Q94.19-21.2 95.82-22.1 97.44-23 99.44-23L99.44-23Q101.69-23 103.37-22 105.04-21 105.64-19L105.64-19 105.79-19Q107.79-21.05 109.52-22.03 111.24-23 113.34-23L113.34-23Q116.24-23 118.12-21.4 119.99-19.8 119.99-16.75L119.99-16.75 119.99-2.05 123.14-0.8 123.14 0 113.04 0 113.04-0.8 116.59-2.05 116.59-14.8Q116.59-17.35 115.17-18.68 113.74-20 111.54-20L111.54-20Q109.99-20 108.47-19.43 106.94-18.85 105.94-17.75L105.94-17.75Q105.99-17.3 105.99-16.75L105.99-16.75 105.99-2.05 109.34-0.8 109.34 0 99.19 0 99.19-0.8 102.64-2.05 102.64-14.8Q102.64-17.35 101.24-18.68 99.84-20 97.64-20L97.64-20Q96.34-20 94.77-19.43 93.19-18.85 92.19-17.8L92.19-17.8 92.19-2.05 95.59-0.8 95.59 0ZM138.04 0.5L138.04 0.5Q134.69 0.5 132.32-0.9 129.94-2.3 128.69-4.78 127.44-7.25 127.44-10.5L127.44-10.5Q127.44-14.1 128.89-16.93 130.34-19.75 132.74-21.38 135.14-23 137.94-23L137.94-23Q141.89-23 144.14-20.3 146.39-17.6 146.54-12.7L146.54-12.7 146.34-12.5 130.79-12.5Q130.79-12.3 130.79-12.1L130.79-12.1Q130.79-9.5 131.69-7.33 132.59-5.15 134.54-3.88 136.49-2.6 139.59-2.6L139.59-2.6Q143.29-2.6 146.39-4.8L146.39-4.8 146.54-4.8 146.54-4.25Q145.44-2.25 143.22-0.88 140.99 0.5 138.04 0.5ZM137.19-21.25L137.19-21.25Q134.79-21.25 133.09-19.43 131.39-17.6 130.94-14.3L130.94-14.3 143.14-14.3Q142.14-21.25 137.19-21.25ZM159.09 0.5L159.09 0.5Q156.99 0.5 155.41 0.1 153.84-0.3 152.24-1.1L152.24-1.1 152.24-6.55 152.89-6.55 154.14-4Q154.79-2.6 156.01-1.83 157.24-1.05 159.19-1.05L159.19-1.05Q161.39-1.05 162.56-2.08 163.74-3.1 163.74-5L163.74-5Q163.74-7.05 162.39-8.05 161.04-9.05 158.39-10.2L158.39-10.2Q155.64-11.35 154.24-12.75 152.84-14.15 152.84-16.7L152.84-16.7Q152.84-18.4 153.81-19.85 154.79-21.3 156.34-22.15 157.89-23 159.59-23L159.59-23Q161.49-23 162.99-22.55 164.49-22.1 165.84-21.4L165.84-21.4 165.84-16.1 165.19-16.1 163.94-18.55Q163.29-20.1 162.11-20.75 160.94-21.4 159.69-21.4L159.69-21.4Q157.89-21.4 156.86-20.43 155.84-19.45 155.84-17.8L155.84-17.8Q155.84-16.1 157.01-15.13 158.19-14.15 160.59-13.1L160.59-13.1Q162.29-12.35 163.69-11.58 165.09-10.8 165.91-9.55 166.74-8.3 166.74-6.1L166.74-6.1Q166.74-4.1 165.64-2.63 164.54-1.15 162.79-0.33 161.04 0.5 159.09 0.5ZM197.79 0L173.39 0 173.39-1 177.34-2.5 177.34-30.5 173.39-32 173.39-33 185.74-33 185.74-32 181.24-30.5 181.24-2.35 193.94-2.35 196.94-10.9 197.79-10.9 197.79 0ZM208.63-29.8L208.63-29.8Q207.53-29.8 206.81-30.53 206.08-31.25 206.08-32.35L206.08-32.35Q206.08-33.5 206.81-34.2 207.53-34.9 208.63-34.9L208.63-34.9Q209.78-34.9 210.48-34.2 211.18-33.5 211.18-32.35L211.18-32.35Q211.18-31.25 210.48-30.53 209.78-29.8 208.63-29.8ZM214.03 0L204.18 0 204.18-0.8 207.33-2.05 207.33-18.65 204.08-20.6 204.08-21.1 210.33-23 210.73-23 210.73-2.05 214.03-0.8 214.03 0ZM222.48 0.3L222.08 0.3 222.08-33.15 218.83-34.95 218.83-35.5 225.08-37.5 225.48-37.5 225.48-19.9 225.68-19.9Q227.58-21.5 229.38-22.25 231.18-23 233.18-23L233.18-23Q235.68-23 237.66-21.7 239.63-20.4 240.76-18.03 241.88-15.65 241.88-12.35L241.88-12.35Q241.88-8.25 240.31-5.38 238.73-2.5 236.08-1 233.43 0.5 230.18 0.5L230.18 0.5Q228.43 0.5 226.76 0.05 225.08-0.4 223.68-1.05L223.68-1.05 222.48 0.3ZM230.98-20.25L230.98-20.25Q228.03-20.25 225.48-18.35L225.48-18.35 225.48-3.55Q228.23-1.45 231.63-1.45L231.63-1.45Q233.48-1.45 235.06-2.43 236.63-3.4 237.58-5.6 238.53-7.8 238.53-11.35L238.53-11.35Q238.53-14.45 237.48-16.43 236.43-18.4 234.71-19.33 232.98-20.25 230.98-20.25ZM257.33 0L247.13 0 247.13-0.8 250.28-2.05 250.28-18.65 247.03-20.35 247.03-20.9 252.88-23 253.28-23 253.63-18.65 253.78-18.65Q255.28-20.6 256.3-21.53 257.33-22.45 258.18-22.73 259.03-23 259.88-23L259.88-23Q260.28-23 260.78-22.88 261.28-22.75 261.58-22.6L261.58-22.6Q262.13-22.4 262.48-22.1 262.83-21.8 262.83-21.45L262.83-21.45Q262.83-21.3 262.8-21.1 262.78-20.9 262.68-20.7L262.68-20.7 261.88-18.7 261.63-18.7 260.13-19.35Q259.23-19.7 258.13-19.7L258.13-19.7Q256.88-19.7 255.78-19.05 254.68-18.4 253.68-16.9L253.68-16.9 253.68-2.05 257.33-0.8 257.33 0ZM271.23 0.5L271.23 0.5Q268.88 0.5 267.33-0.88 265.78-2.25 265.78-4.7L265.78-4.7Q265.78-7.15 267.58-8.85 269.38-10.55 273.53-11.55L273.53-11.55 278.38-12.75 278.38-16.6Q278.38-18.5 276.9-19.75 275.43-21 273.63-21L273.63-21Q271.63-21 270.83-20.05 270.03-19.1 270.03-17.45L270.03-17.45 270.03-15.8 269.78-15.55 267.68-15.55Q266.93-15.55 266.65-15.78 266.38-16 266.38-16.85L266.38-16.85Q266.38-17.9 267.03-19 267.68-20.1 268.98-20.9L268.98-20.9Q270.38-21.8 271.85-22.4 273.33-23 274.83-23L274.83-23Q276.73-23 278.28-22.48 279.83-21.95 280.78-20.75 281.73-19.55 281.73-17.55L281.73-17.55 281.73-2.8Q282.13-2.4 282.73-2.2 283.33-2 284.28-2L284.28-2 286.48-2 286.58-1.9 286.58-1.8Q286.08-0.95 285.05-0.23 284.03 0.5 282.48 0.5L282.48 0.5Q280.88 0.5 279.93-0.35 278.98-1.2 278.63-2.5L278.63-2.5 278.38-2.5Q277.08-1.2 275.2-0.35 273.33 0.5 271.23 0.5ZM269.13-5.65L269.13-5.65Q269.13-3.9 270.18-3.03 271.23-2.15 273.13-2.15L273.13-2.15Q274.38-2.15 275.68-2.45 276.98-2.75 278.38-3.45L278.38-3.45 278.38-11.3Q274.33-10.5 272.35-9.65 270.38-8.8 269.75-7.83 269.13-6.85 269.13-5.65ZM300.12 0L289.92 0 289.92-0.8 293.07-2.05 293.07-18.65 289.82-20.35 289.82-20.9 295.67-23 296.07-23 296.42-18.65 296.57-18.65Q298.07-20.6 299.1-21.53 300.12-22.45 300.97-22.73 301.82-23 302.67-23L302.67-23Q303.07-23 303.57-22.88 304.07-22.75 304.37-22.6L304.37-22.6Q304.92-22.4 305.27-22.1 305.62-21.8 305.62-21.45L305.62-21.45Q305.62-21.3 305.6-21.1 305.57-20.9 305.47-20.7L305.47-20.7 304.67-18.7 304.42-18.7 302.92-19.35Q302.02-19.7 300.92-19.7L300.92-19.7Q299.67-19.7 298.57-19.05 297.47-18.4 296.47-16.9L296.47-16.9 296.47-2.05 300.12-0.8 300.12 0ZM309.52 12.05L309.52 12.05Q308.42 12.05 308.15 11.73 307.87 11.4 307.87 10.6L307.87 10.6 307.87 8.65 308.07 8.45 310.37 8.45Q311.62 8.45 312.27 8.22 312.92 8 313.47 7.1 314.02 6.2 315.02 4.1L315.02 4.1 317.07-0.45 308.32-20.4 305.07-21.7 305.07-22.5 316.07-22.5 316.07-21.7 312.07-20.45 312.07-20.25 318.72-4.65 318.87-4.65 324.67-20.05 324.67-20.3 320.82-21.7 320.82-22.5 330.22-22.5 330.22-21.7 326.72-20.35 316.62 4.55Q315.92 6.2 315.47 7.15 315.02 8.1 314.12 9.4L314.12 9.4Q313.17 10.7 311.97 11.38 310.77 12.05 309.52 12.05Z" opacity="1" transform="matrix(1,0,0,1,0,0)" fill="#323232" class="wordmark-text-0" data-fill-palette-color="primary" id="text-0"></path>
                                        </svg>
                                      </g>
                                    </svg>
                                  </g>
                                  <g transform="matrix(1,0,0,1,22.39999999999999,38.895534130886844)">
                                    <svg viewBox="0 0 179.20000000000002 18.359665678080344" height="18.359665678080344" width="179.20000000000002">
                                      <g transform="matrix(1,0,0,1,0,0)">
                                        <svg width="179.20000000000002" viewBox="3.25 -37.5 370.8599853515625 38" height="18.359665678080344" data-palette-color="#323232">
                                          <path d="M15.8 0L3.25 0 3.25-1 7.2-2.5 7.2-30.5 3.25-32 3.25-33 14.45-33Q17.7-33 20.35-32.18 23-31.35 24.55-29.73 26.1-28.1 26.1-25.6L26.1-25.6Q26.1-23 24.38-20.83 22.65-18.65 19.45-17.7L19.45-17.7Q23.95-17.1 26.45-15 28.95-12.9 28.95-9.6L28.95-9.6Q28.95-6.85 27.23-4.67 25.5-2.5 22.55-1.25 19.6 0 15.8 0L15.8 0ZM13.9-30.65L13.9-30.65 11.1-30.65 11.1-18.2 14.2-18.2Q17.75-18.2 19.85-19.8 21.95-21.4 21.95-24.3L21.95-24.3Q21.95-27.45 19.9-29.05 17.85-30.65 13.9-30.65ZM15.8-15.85L15.8-15.85 11.1-15.85 11.1-2.3 16.15-2.3Q20.1-2.3 22.45-4.23 24.8-6.15 24.8-9.1L24.8-9.1Q24.8-12.6 22.43-14.23 20.05-15.85 15.8-15.85ZM44.75 0.5L44.75 0.5Q41.55 0.5 39.15-1.05 36.75-2.6 35.4-5.25 34.05-7.9 34.05-11.25L34.05-11.25Q34.05-14.6 35.4-17.25 36.75-19.9 39.15-21.45 41.55-23 44.75-23L44.75-23Q47.95-23 50.35-21.45 52.75-19.9 54.1-17.25 55.45-14.6 55.45-11.25L55.45-11.25Q55.45-7.9 54.1-5.25 52.75-2.6 50.35-1.05 47.95 0.5 44.75 0.5ZM45.45-1.25L45.45-1.25Q47.55-1.25 48.95-2.55 50.35-3.85 51.05-5.93 51.75-8 51.75-10.25L51.75-10.25Q51.75-13.1 50.92-15.63 50.1-18.15 48.42-19.73 46.75-21.3 44.15-21.3L44.15-21.3Q42.05-21.3 40.62-20.05 39.2-18.8 38.47-16.75 37.75-14.7 37.75-12.3L37.75-12.3Q37.75-9.4 38.6-6.88 39.45-4.35 41.15-2.8 42.85-1.25 45.45-1.25ZM71.15 0.5L71.15 0.5Q67.95 0.5 65.55-1.05 63.15-2.6 61.8-5.25 60.45-7.9 60.45-11.25L60.45-11.25Q60.45-14.6 61.8-17.25 63.15-19.9 65.55-21.45 67.95-23 71.15-23L71.15-23Q74.35-23 76.75-21.45 79.15-19.9 80.5-17.25 81.85-14.6 81.85-11.25L81.85-11.25Q81.85-7.9 80.5-5.25 79.15-2.6 76.75-1.05 74.35 0.5 71.15 0.5ZM71.85-1.25L71.85-1.25Q73.95-1.25 75.35-2.55 76.75-3.85 77.45-5.93 78.15-8 78.15-10.25L78.15-10.25Q78.15-13.1 77.32-15.63 76.5-18.15 74.82-19.73 73.15-21.3 70.55-21.3L70.55-21.3Q68.45-21.3 67.02-20.05 65.6-18.8 64.87-16.75 64.15-14.7 64.15-12.3L64.15-12.3Q64.15-9.4 65-6.88 65.85-4.35 67.55-2.8 69.25-1.25 71.85-1.25ZM97.04 0L86.94 0 86.94-0.8 90.09-2.05 90.09-33.15 86.84-35.1 86.84-35.6 93.09-37.5 93.49-37.5 93.49-12.65 101.94-19.95 101.94-20.25 99.49-21.7 99.49-22.5 108.39-22.5 108.39-21.7 105.19-20.3 96.49-13.55 107.04-2.15 110.24-0.8 110.24 0 104.14 0 102.49-2.25 93.49-12.1 93.49-2 97.04-0.8 97.04 0ZM121.64 0.5L121.64 0.5Q119.54 0.5 117.97 0.1 116.39-0.3 114.79-1.1L114.79-1.1 114.79-6.55 115.44-6.55 116.69-4Q117.34-2.6 118.57-1.83 119.79-1.05 121.74-1.05L121.74-1.05Q123.94-1.05 125.12-2.08 126.29-3.1 126.29-5L126.29-5Q126.29-7.05 124.94-8.05 123.59-9.05 120.94-10.2L120.94-10.2Q118.19-11.35 116.79-12.75 115.39-14.15 115.39-16.7L115.39-16.7Q115.39-18.4 116.37-19.85 117.34-21.3 118.89-22.15 120.44-23 122.14-23L122.14-23Q124.04-23 125.54-22.55 127.04-22.1 128.39-21.4L128.39-21.4 128.39-16.1 127.74-16.1 126.49-18.55Q125.84-20.1 124.67-20.75 123.49-21.4 122.24-21.4L122.24-21.4Q120.44-21.4 119.42-20.43 118.39-19.45 118.39-17.8L118.39-17.8Q118.39-16.1 119.57-15.13 120.74-14.15 123.14-13.1L123.14-13.1Q124.84-12.35 126.24-11.58 127.64-10.8 128.47-9.55 129.29-8.3 129.29-6.1L129.29-6.1Q129.29-4.1 128.19-2.63 127.09-1.15 125.34-0.33 123.59 0.5 121.64 0.5ZM152.99 0.5L152.99 0.5Q150.64 0.5 149.09-0.88 147.54-2.25 147.54-4.7L147.54-4.7Q147.54-7.15 149.34-8.85 151.14-10.55 155.29-11.55L155.29-11.55 160.14-12.75 160.14-16.6Q160.14-18.5 158.66-19.75 157.19-21 155.39-21L155.39-21Q153.39-21 152.59-20.05 151.79-19.1 151.79-17.45L151.79-17.45 151.79-15.8 151.54-15.55 149.44-15.55Q148.69-15.55 148.41-15.78 148.14-16 148.14-16.85L148.14-16.85Q148.14-17.9 148.79-19 149.44-20.1 150.74-20.9L150.74-20.9Q152.14-21.8 153.61-22.4 155.09-23 156.59-23L156.59-23Q158.49-23 160.04-22.48 161.59-21.95 162.54-20.75 163.49-19.55 163.49-17.55L163.49-17.55 163.49-2.8Q163.89-2.4 164.49-2.2 165.09-2 166.04-2L166.04-2 168.24-2 168.34-1.9 168.34-1.8Q167.84-0.95 166.81-0.23 165.79 0.5 164.24 0.5L164.24 0.5Q162.64 0.5 161.69-0.35 160.74-1.2 160.39-2.5L160.39-2.5 160.14-2.5Q158.84-1.2 156.96-0.35 155.09 0.5 152.99 0.5ZM150.89-5.65L150.89-5.65Q150.89-3.9 151.94-3.03 152.99-2.15 154.89-2.15L154.89-2.15Q156.14-2.15 157.44-2.45 158.74-2.75 160.14-3.45L160.14-3.45 160.14-11.3Q156.09-10.5 154.11-9.65 152.14-8.8 151.51-7.83 150.89-6.85 150.89-5.65ZM181.88 0L171.68 0 171.68-0.8 174.83-2.05 174.83-18.65 171.58-20.35 171.58-20.9 177.43-23 177.83-23 178.18-18.65 178.33-18.65Q179.83-20.6 180.86-21.53 181.88-22.45 182.73-22.73 183.58-23 184.43-23L184.43-23Q184.83-23 185.33-22.88 185.83-22.75 186.13-22.6L186.13-22.6Q186.68-22.4 187.03-22.1 187.38-21.8 187.38-21.45L187.38-21.45Q187.38-21.3 187.36-21.1 187.33-20.9 187.23-20.7L187.23-20.7 186.43-18.7 186.18-18.7 184.68-19.35Q183.78-19.7 182.68-19.7L182.68-19.7Q181.43-19.7 180.33-19.05 179.23-18.4 178.23-16.9L178.23-16.9 178.23-2.05 181.88-0.8 181.88 0ZM201.08 0.5L201.08 0.5Q197.73 0.5 195.36-0.9 192.98-2.3 191.73-4.78 190.48-7.25 190.48-10.5L190.48-10.5Q190.48-14.1 191.93-16.93 193.38-19.75 195.78-21.38 198.18-23 200.98-23L200.98-23Q204.93-23 207.18-20.3 209.43-17.6 209.58-12.7L209.58-12.7 209.38-12.5 193.83-12.5Q193.83-12.3 193.83-12.1L193.83-12.1Q193.83-9.5 194.73-7.33 195.63-5.15 197.58-3.88 199.53-2.6 202.63-2.6L202.63-2.6Q206.33-2.6 209.43-4.8L209.43-4.8 209.58-4.8 209.58-4.25Q208.48-2.25 206.26-0.88 204.03 0.5 201.08 0.5ZM200.23-21.25L200.23-21.25Q197.83-21.25 196.13-19.43 194.43-17.6 193.98-14.3L193.98-14.3 206.18-14.3Q205.18-21.25 200.23-21.25ZM237.73 0L227.53 0 227.53-0.8 230.68-2.05 230.68-20.4 226.58-20.4 226.58-22.5 230.68-22.5 230.68-24.5Q230.68-25.75 231.15-27.43 231.63-29.1 232.55-30.85 233.48-32.6 234.83-34.1 236.18-35.6 237.93-36.55 239.68-37.5 241.83-37.5L241.83-37.5Q242.23-37.5 242.65-37.38 243.08-37.25 243.33-37.15L243.33-37.15Q244.53-36.65 244.53-36L244.53-36Q244.53-35.85 244.5-35.63 244.48-35.4 244.38-35.2L244.38-35.2 243.58-33.2 243.33-33.2 242.08-33.65Q240.63-34.2 238.93-34.2L238.93-34.2Q236.28-34.2 235.18-32.33 234.08-30.45 234.08-26.5L234.08-26.5 234.08-22.5 240.68-22.5 240.68-20.4 234.08-20.4 234.08-2 237.73-0.8 237.73 0ZM254.47 0L244.27 0 244.27-0.8 247.42-2.05 247.42-18.65 244.17-20.35 244.17-20.9 250.02-23 250.42-23 250.77-18.65 250.92-18.65Q252.42-20.6 253.45-21.53 254.47-22.45 255.32-22.73 256.17-23 257.02-23L257.02-23Q257.42-23 257.92-22.88 258.42-22.75 258.72-22.6L258.72-22.6Q259.27-22.4 259.62-22.1 259.97-21.8 259.97-21.45L259.97-21.45Q259.97-21.3 259.95-21.1 259.92-20.9 259.82-20.7L259.82-20.7 259.02-18.7 258.77-18.7 257.27-19.35Q256.37-19.7 255.27-19.7L255.27-19.7Q254.02-19.7 252.92-19.05 251.82-18.4 250.82-16.9L250.82-16.9 250.82-2.05 254.47-0.8 254.47 0ZM267.92-29.8L267.92-29.8Q266.82-29.8 266.1-30.53 265.37-31.25 265.37-32.35L265.37-32.35Q265.37-33.5 266.1-34.2 266.82-34.9 267.92-34.9L267.92-34.9Q269.07-34.9 269.77-34.2 270.47-33.5 270.47-32.35L270.47-32.35Q270.47-31.25 269.77-30.53 269.07-29.8 267.92-29.8ZM273.32 0L263.47 0 263.47-0.8 266.62-2.05 266.62-18.65 263.37-20.6 263.37-21.1 269.62-23 270.02-23 270.02-2.05 273.32-0.8 273.32 0ZM289.07 0.5L289.07 0.5Q285.72 0.5 283.34-0.9 280.97-2.3 279.72-4.78 278.47-7.25 278.47-10.5L278.47-10.5Q278.47-14.1 279.92-16.93 281.37-19.75 283.77-21.38 286.17-23 288.97-23L288.97-23Q292.92-23 295.17-20.3 297.42-17.6 297.57-12.7L297.57-12.7 297.37-12.5 281.82-12.5Q281.82-12.3 281.82-12.1L281.82-12.1Q281.82-9.5 282.72-7.33 283.62-5.15 285.57-3.88 287.52-2.6 290.62-2.6L290.62-2.6Q294.32-2.6 297.42-4.8L297.42-4.8 297.57-4.8 297.57-4.25Q296.47-2.25 294.24-0.88 292.02 0.5 289.07 0.5ZM288.22-21.25L288.22-21.25Q285.82-21.25 284.12-19.43 282.42-17.6 281.97-14.3L281.97-14.3 294.17-14.3Q293.17-21.25 288.22-21.25ZM312.81 0L302.72 0 302.72-0.8 305.87-2.05 305.87-18.65 302.62-20.35 302.62-20.9 308.47-23 308.87-23 309.22-19.35 309.42-19.35Q311.31-21.2 313.04-22.1 314.76-23 316.87-23L316.87-23Q319.87-23 321.81-21.4 323.76-19.8 323.76-16.75L323.76-16.75 323.76-2.05 326.92-0.8 326.92 0 316.81 0 316.81-0.8 320.37-2.05 320.37-14.8Q320.37-17.35 318.87-18.68 317.37-20 315.01-20L315.01-20Q313.62-20 311.94-19.43 310.26-18.85 309.26-17.8L309.26-17.8 309.26-2.05 312.81-0.8 312.81 0ZM339.76 0.5L339.76 0.5Q337.26 0.5 335.31-0.75 333.36-2 332.24-4.35 331.11-6.7 331.11-9.9L331.11-9.9Q331.11-14.1 332.74-17.03 334.36-19.95 337.09-21.48 339.81-23 343.01-23L343.01-23Q344.31-23 345.41-22.8 346.51-22.6 347.46-22.25L347.46-22.25 347.46-33.15 344.06-35.1 344.06-35.6 350.46-37.5 350.86-37.5 350.86-2 354.41-0.8 354.41 0 347.96 0 347.51-2.55 347.26-2.55Q345.41-1 343.61-0.25 341.81 0.5 339.76 0.5ZM334.41-10.9L334.41-10.9Q334.41-7.9 335.46-6 336.51-4.1 338.24-3.18 339.96-2.25 341.96-2.25L341.96-2.25Q343.36-2.25 344.79-2.73 346.21-3.2 347.46-4.15L347.46-4.15 347.46-19.05Q346.11-20 344.81-20.5 343.51-21 341.91-21L341.91-21Q339.91-21 338.19-20 336.46-19 335.44-16.78 334.41-14.55 334.41-10.9ZM366.46 0.5L366.46 0.5Q364.36 0.5 362.78 0.1 361.21-0.3 359.61-1.1L359.61-1.1 359.61-6.55 360.26-6.55 361.51-4Q362.16-2.6 363.38-1.83 364.61-1.05 366.56-1.05L366.56-1.05Q368.76-1.05 369.94-2.08 371.11-3.1 371.11-5L371.11-5Q371.11-7.05 369.76-8.05 368.41-9.05 365.76-10.2L365.76-10.2Q363.01-11.35 361.61-12.75 360.21-14.15 360.21-16.7L360.21-16.7Q360.21-18.4 361.19-19.85 362.16-21.3 363.71-22.15 365.26-23 366.96-23L366.96-23Q368.86-23 370.36-22.55 371.86-22.1 373.21-21.4L373.21-21.4 373.21-16.1 372.56-16.1 371.31-18.55Q370.66-20.1 369.48-20.75 368.31-21.4 367.06-21.4L367.06-21.4Q365.26-21.4 364.23-20.43 363.21-19.45 363.21-17.8L363.21-17.8Q363.21-16.1 364.38-15.13 365.56-14.15 367.96-13.1L367.96-13.1Q369.66-12.35 371.06-11.58 372.46-10.8 373.28-9.55 374.11-8.3 374.11-6.1L374.11-6.1Q374.11-4.1 373.01-2.63 371.91-1.15 370.16-0.33 368.41 0.5 366.46 0.5Z" opacity="1" transform="matrix(1,0,0,1,0,0)" fill="#323232" class="slogan-text-1" data-fill-palette-color="secondary" id="text-1"></path>
                                        </svg>
                                      </g>
                                    </svg>
                                  </g>
                                </svg>
                              </g>
                            </svg>
                          </g>
                          <g transform="matrix(1,0,0,1,40.75840567271541,0)">
                            <svg viewBox="0 0 142.48318865456918 118.69002920398903" height="118.69002920398903" width="142.48318865456918">
                              <g>
                                <svg xmlns="http://www.w3.org/2000/svg" xmlns:xlink="http://www.w3.org/1999/xlink" version="1.1" x="0" y="0" viewBox="20.00246238708496 22.953004837036133 64.93553924560547 54.092002868652344" enable-background="new 0 0 100 100" xml:space="preserve" height="118.69002920398903" width="142.48318865456918" class="icon-icon-0" data-fill-palette-color="accent" id="icon-0">
                                  <g fill="#323232" data-fill-palette-color="accent">
                                    <path d="M70.907 48.925c3.273-0.662 6.546-1.866 9.82-2.528 0.064-0.014 0.124-0.05 0.168-0.104 0.045-0.054 0.07-0.119 0.07-0.182 0-0.224 0-0.445 0-0.668 0-0.131-0.107-0.218-0.239-0.19-3.273 0.662-6.546 1.865-9.82 2.527-0.133 0.027-0.24 0.154-0.24 0.287 0 0.222-0.001 0.444-0.001 0.666 0.002 0.064 0.025 0.121 0.071 0.156C70.781 48.925 70.843 48.938 70.907 48.925z" fill="#323232" data-fill-palette-color="accent"></path>
                                    <path d="M80.895 47.769c-0.044-0.036-0.104-0.05-0.168-0.036-3.273 0.663-6.546 1.866-9.82 2.528-0.133 0.027-0.239 0.154-0.24 0.287 0 0.222 0 0.444 0 0.666 0 0.063 0.024 0.119 0.07 0.156 0.045 0.035 0.105 0.049 0.168 0.036 3.274-0.662 6.548-1.867 9.822-2.529 0.066-0.014 0.126-0.052 0.168-0.104 0.044-0.051 0.07-0.116 0.071-0.182 0-0.223 0-0.445 0-0.668C80.965 47.86 80.94 47.805 80.895 47.769z" fill="#323232" data-fill-palette-color="accent"></path>
                                    <path d="M70.907 53.887c3.273-0.663 6.546-1.866 9.82-2.529 0.065-0.014 0.125-0.051 0.168-0.104 0.043-0.051 0.07-0.115 0.07-0.182 0-0.223 0-0.444 0-0.667 0-0.063-0.025-0.119-0.07-0.155-0.044-0.036-0.104-0.049-0.168-0.036-3.273 0.663-6.546 1.867-9.82 2.529-0.127 0.026-0.24 0.16-0.24 0.287 0 0.223 0 0.444 0 0.666C70.667 53.827 70.774 53.913 70.907 53.887z" fill="#323232" data-fill-palette-color="accent"></path>
                                    <path d="M83.424 39.514c-5.058 0.438-10.116 2.877-15.174 3.326-5.058-0.449-10.116-2.888-15.174-3.326-0.404-0.035-0.783 0.103-1.069 0.381-0.285 0.278-0.443 0.66-0.443 1.063 0 7.245 0 14.49 0 21.736 0 0.404 0.158 0.782 0.443 1.075 0.286 0.292 0.666 0.469 1.069 0.504 4.851 0.421 9.702 2.678 14.553 3.258 0.18 0.066 0.377 0.092 0.58 0.073 0.014-0.001 0.028-0.003 0.042-0.004 0.014 0.001 0.028 0.003 0.042 0.004 0.203 0.019 0.399-0.007 0.58-0.073 4.851-0.58 9.702-2.837 14.553-3.258 0.404-0.035 0.783-0.212 1.069-0.504 0.285-0.293 0.443-0.671 0.443-1.075 0-7.246 0-14.491 0-21.736 0-0.403-0.158-0.785-0.443-1.063C84.207 39.616 83.828 39.479 83.424 39.514zM66.697 64.38c-4.037-0.65-8.073-2.307-12.109-2.943 0-6.237 0.001-12.475 0.001-18.712 4.036 0.636 8.071 2.293 12.108 2.942C66.697 51.904 66.697 58.143 66.697 64.38zM69.803 64.38c0-6.237 0-12.476 0-18.713 4.037-0.649 8.072-2.307 12.108-2.942 0 6.237 0.001 12.475 0.001 18.712C77.876 62.073 73.84 63.729 69.803 64.38z" fill="#323232" data-fill-palette-color="accent"></path>
                                    <path d="M55.773 46.396c3.273 0.662 6.546 1.866 9.82 2.528 0.064 0.013 0.125 0 0.17-0.036 0.045-0.035 0.069-0.092 0.071-0.156 0-0.222-0.001-0.444-0.001-0.666 0-0.133-0.106-0.26-0.24-0.287-3.273-0.662-6.546-1.865-9.82-2.527-0.131-0.027-0.239 0.06-0.239 0.19 0 0.223 0 0.444 0 0.668 0 0.062 0.025 0.128 0.07 0.182C55.649 46.347 55.709 46.383 55.773 46.396z" fill="#323232" data-fill-palette-color="accent"></path>
                                    <path d="M55.773 48.877c3.273 0.662 6.548 1.867 9.822 2.529 0.063 0.013 0.123-0.001 0.168-0.036 0.045-0.037 0.07-0.093 0.07-0.156 0-0.222 0-0.444 0-0.666-0.001-0.133-0.107-0.26-0.24-0.287-3.273-0.662-6.546-1.865-9.82-2.528-0.064-0.014-0.124 0-0.168 0.036-0.045 0.036-0.07 0.092-0.07 0.154 0 0.223 0 0.445 0 0.668 0.001 0.065 0.027 0.131 0.071 0.182C55.647 48.825 55.708 48.863 55.773 48.877z" fill="#323232" data-fill-palette-color="accent"></path>
                                    <path d="M65.593 53.887c0.133 0.026 0.24-0.06 0.24-0.191 0-0.222 0-0.443 0-0.666 0-0.127-0.113-0.261-0.24-0.287-3.273-0.662-6.546-1.866-9.82-2.529-0.064-0.013-0.124 0-0.168 0.036-0.045 0.036-0.07 0.092-0.07 0.155 0 0.223 0 0.444 0 0.667 0 0.066 0.027 0.131 0.07 0.182 0.043 0.054 0.103 0.091 0.168 0.104C59.047 52.021 62.32 53.224 65.593 53.887z" fill="#323232" data-fill-palette-color="accent"></path>
                                    <path d="M70.907 56.25c3.273-0.662 6.546-1.866 9.82-2.529 0.064-0.013 0.124-0.051 0.168-0.104 0.045-0.054 0.07-0.119 0.07-0.183 0-0.222 0-0.444 0-0.667 0-0.131-0.107-0.219-0.239-0.191-3.273 0.662-6.546 1.866-9.82 2.528-0.133 0.026-0.24 0.155-0.24 0.287 0 0.222-0.001 0.445-0.001 0.666 0.002 0.064 0.025 0.12 0.071 0.156C70.781 56.249 70.843 56.263 70.907 56.25z" fill="#323232" data-fill-palette-color="accent"></path>
                                    <path d="M80.895 55.093c-0.044-0.036-0.104-0.048-0.168-0.035-3.273 0.662-6.546 1.866-9.82 2.527-0.133 0.028-0.239 0.155-0.24 0.287 0 0.223 0 0.444 0 0.667 0 0.062 0.024 0.12 0.07 0.156 0.045 0.035 0.105 0.048 0.168 0.035 3.274-0.662 6.548-1.866 9.822-2.527 0.066-0.015 0.126-0.054 0.168-0.104 0.044-0.053 0.07-0.116 0.071-0.183 0-0.224 0-0.445 0-0.667C80.965 55.186 80.94 55.128 80.895 55.093z" fill="#323232" data-fill-palette-color="accent"></path>
                                    <path d="M80.727 57.539c-3.273 0.662-6.546 1.865-9.82 2.528-0.127 0.025-0.24 0.159-0.24 0.286 0 0.223 0 0.445 0 0.667 0 0.131 0.107 0.219 0.24 0.191 3.273-0.663 6.546-1.867 9.82-2.53 0.065-0.012 0.125-0.051 0.168-0.104 0.043-0.051 0.07-0.116 0.07-0.182 0-0.223 0-0.445 0-0.666 0-0.064-0.025-0.12-0.07-0.156C80.851 57.539 80.791 57.526 80.727 57.539z" fill="#323232" data-fill-palette-color="accent"></path>
                                    <path d="M55.535 53.435c0 0.063 0.025 0.129 0.07 0.183 0.044 0.053 0.104 0.091 0.168 0.104 3.273 0.663 6.546 1.867 9.82 2.529 0.064 0.013 0.125-0.001 0.17-0.036 0.045-0.036 0.069-0.092 0.071-0.156 0-0.221-0.001-0.444-0.001-0.666 0-0.132-0.106-0.261-0.24-0.287-3.273-0.662-6.546-1.866-9.82-2.528-0.131-0.027-0.239 0.061-0.239 0.191C55.535 52.99 55.535 53.213 55.535 53.435z" fill="#323232" data-fill-palette-color="accent"></path>
                                    <path d="M55.773 56.203c3.273 0.661 6.548 1.865 9.822 2.527 0.063 0.013 0.123 0 0.168-0.035 0.045-0.036 0.07-0.094 0.07-0.156 0-0.223 0-0.444 0-0.667-0.001-0.132-0.107-0.259-0.24-0.287-3.273-0.661-6.546-1.865-9.82-2.527-0.064-0.013-0.124-0.001-0.168 0.035-0.045 0.035-0.07 0.093-0.07 0.156 0 0.222 0 0.443 0 0.667 0.001 0.066 0.027 0.13 0.071 0.183C55.647 56.149 55.708 56.188 55.773 56.203z" fill="#323232" data-fill-palette-color="accent"></path>
                                    <path d="M65.593 60.067c-3.273-0.663-6.546-1.866-9.82-2.528-0.064-0.013-0.124 0-0.168 0.035-0.045 0.036-0.07 0.092-0.07 0.156 0 0.221 0 0.443 0 0.666 0 0.065 0.027 0.131 0.07 0.182 0.043 0.053 0.103 0.092 0.168 0.104 3.273 0.663 6.546 1.867 9.82 2.53 0.133 0.027 0.24-0.061 0.24-0.191 0-0.222 0-0.444 0-0.667C65.833 60.227 65.72 60.093 65.593 60.067z" fill="#323232" data-fill-palette-color="accent"></path>
                                  </g>
                                  <path d="M76.422 68.066c-2.296 0.653-4.669 1.329-7.09 1.639-0.296 0.079-0.602 0.119-0.912 0.119-0.056 0-0.113-0.002-0.169-0.004-0.057 0.002-0.113 0.004-0.169 0.004-0.31 0-0.616-0.04-0.912-0.119-2.421-0.31-4.794-0.985-7.09-1.639-2.504-0.713-4.869-1.386-7.195-1.588-0.933-0.081-1.806-0.494-2.462-1.164-0.564-0.579-0.908-1.31-1.02-2.092H47.1V44.439h2.25v-3.481c0-0.994 0.405-1.958 1.112-2.648 0.671-0.654 1.556-1.016 2.491-1.016 0.105 0 0.21 0.005 0.315 0.014 2.748 0.238 5.431 1.003 8.025 1.742 2.419 0.689 4.708 1.342 6.958 1.566 2.173-0.217 4.387-0.835 6.716-1.498l-9.746-6.603-13.197-8.939c-0.611-0.414-1.316-0.623-2.022-0.623s-1.412 0.209-2.023 0.623l-13.195 8.939-13.197 8.939c-1.312 0.889-1.89 2.529-1.426 4.043 0.465 1.516 1.864 2.547 3.447 2.547h3.27v11.607c-1.681 0.234-2.989 1.627-3.096 3.346h-0.174c-1.99 0-3.605 1.613-3.605 3.605v6.836c0 1.992 1.615 3.607 3.605 3.607h52.788c1.991 0 3.605-1.615 3.605-3.607v-6.336C78.832 67.382 77.644 67.719 76.422 68.066zM41.691 63.223H35.89V44.439h5.801V63.223z" fill="#323232" data-fill-palette-color="accent"></path>
                                </svg>
                              </g>
                            </svg>
                          </g>
                          <g></g>
                        </svg>
                      </g>
                    </svg>
                  </g>
                </svg>
              </g>
            </svg>
          </g>
          <defs></defs>
        </svg>
        <rect width="320" height="360" fill="none" stroke="none" visibility="hidden"></rect>
      </g>
    </svg>
  </g>
</svg>